<svg width="147" height="34" viewBox="0 0 147 34" fill="none" xmlns="http://www.w3.org/2000/svg">
<mask id="mask0" mask-type="alpha" maskUnits="userSpaceOnUse" x="0" y="0" width="147" height="34">
<g clip-path="url(#clip0)">
<path d="M66.4173 13.9778C71.7627 13.9778 75.5046 17.6296 75.5046 22.6667C75.5046 23.0444 75.5046 23.6741 75.3709 23.9259C75.3709 24.4296 74.97 24.6815 74.4355 24.6815H60.0027C60.1364 27.8296 63.21 30.8518 66.8182 30.8518C68.9564 30.8518 70.6937 30.0963 71.7627 29.4667C72.4309 29.0889 72.8318 28.837 73.2327 29.3407L74.0346 30.4741C74.4355 30.8518 74.5691 31.2296 73.9009 31.7333C72.6982 32.6148 70.0255 33.8741 66.5509 33.8741C60.4037 33.8741 56.6618 29.3407 56.6618 23.9259C56.5282 18.637 60.27 13.9778 66.4173 13.9778V13.9778ZM72.03 22.037C71.8964 19.2667 69.4909 16.8741 66.4173 16.8741C63.0764 16.8741 60.4037 19.1407 60.0027 22.037H72.03ZM80.85 1.13332C80.85 0.629619 81.2509 0.251841 81.7855 0.251841H83.3891C83.9237 0.251841 84.3246 0.629619 84.3246 1.13332V15.237C84.3246 15.237 86.4627 13.9778 89.67 13.9778C95.6837 13.9778 99.2918 18.3852 99.2918 23.9259C99.2918 29.3407 95.2827 34 90.0709 34C86.3291 34 83.9237 31.4815 83.9237 31.4815L83.6564 32.7407C83.5227 33.1185 83.2555 33.4963 82.8546 33.4963H81.7855C81.2509 33.4963 80.85 33.1185 80.85 32.6148V1.13332ZM89.9373 30.9778C93.6791 30.9778 95.9509 27.7037 95.9509 24.0518C95.9509 20.2741 93.6791 17.2518 89.4027 17.2518C86.5964 17.2518 84.4582 18.3852 84.4582 18.3852V27.8296C84.4582 27.8296 86.3291 30.9778 89.9373 30.9778V30.9778ZM104.236 8.05925C104.236 6.79999 105.305 5.79258 106.642 5.79258C107.978 5.79258 109.047 6.79999 109.047 8.05925C109.047 9.31851 107.978 10.3259 106.642 10.3259C105.305 10.2 104.236 9.31851 104.236 8.05925V8.05925ZM105.038 15.363C105.038 14.8592 105.439 14.4815 105.974 14.4815H107.577C108.112 14.4815 108.513 14.8592 108.513 15.363V32.6148C108.513 33.1185 108.112 33.4963 107.577 33.4963H105.974C105.439 33.4963 105.038 33.1185 105.038 32.6148V15.363ZM115.462 15.363C115.462 14.8592 115.863 14.4815 116.397 14.4815H117.333C117.734 14.4815 118.001 14.6074 118.135 15.1111L118.535 16.6222C118.535 16.6222 120.941 14.1037 125.084 14.1037C128.024 14.1037 130.162 15.237 131.498 17.2518C131.765 17.1259 134.973 14.1037 138.982 14.1037C144.862 14.1037 146.733 17.7555 146.733 22.6667V32.7407C146.733 33.2444 146.332 33.6222 145.797 33.6222H144.194C143.659 33.6222 143.258 33.2444 143.258 32.7407V22.6667C143.258 19.1407 141.655 17.2518 138.715 17.2518C135.374 17.2518 133.235 19.2667 132.567 19.8963C132.701 20.6518 132.835 21.6592 132.835 22.5407V32.6148C132.835 33.1185 132.434 33.4963 131.899 33.4963H130.295C129.761 33.4963 129.36 33.1185 129.36 32.6148V22.5407C129.36 18.8889 127.623 17.1259 124.549 17.1259C120.941 17.1259 118.803 19.7704 118.803 19.7704V32.4889C118.803 32.9926 118.402 33.3704 117.867 33.3704H116.264C115.729 33.3704 115.328 32.9926 115.328 32.4889L115.462 15.363V15.363ZM53.7218 0.125916C53.1873 0.125916 52.6527 0.503693 52.5191 1.0074V1.25925L51.8509 4.28147C51.7173 5.28888 51.45 6.29629 51.1827 7.30369L51.0491 7.8074C50.5146 10.2 49.8464 12.7185 49.1782 15.1111C48.51 17.7555 47.7082 20.1481 46.9064 22.4148C46.5055 23.6741 45.9709 24.9333 45.57 25.8148L44.7682 27.3259C44.5009 27.8296 43.4318 29.7185 41.9618 27.5778C41.6946 27.2 41.4273 26.6963 41.0264 26.1926C39.8237 24.0518 38.7546 21.4074 37.9527 19.0148L37.2846 17.2518C36.6164 15.4889 35.9482 13.6 35.1464 11.837C35.0127 11.7111 35.0127 11.4592 34.8791 11.3333C34.3446 10.2 33.81 8.8148 33.0082 7.42962C32.6073 6.67406 32.2064 6.04443 31.8055 5.54073C31.4046 4.9111 30.87 4.28147 29.9346 3.65184C29.5337 3.39999 28.9991 3.14814 28.5982 3.02221C28.0637 2.89629 27.5291 2.89629 26.9946 3.02221C26.46 3.14814 26.0591 3.27406 25.5246 3.65184C25.1237 3.90369 24.7227 4.28147 24.4555 4.53332C23.7873 5.28888 23.3864 5.91851 22.9855 6.54814C22.9855 6.54814 26.9946 6.04443 29.4 9.82221C29.4 9.82221 29.4 9.94814 29.5337 9.94814C29.5337 10.0741 29.6673 10.2 29.8009 10.3259C30.3355 11.2074 30.87 12.3407 31.4046 13.7259C32.0727 15.363 32.7409 17.1259 33.5427 19.0148C33.81 19.7704 34.0773 20.5259 34.4782 21.2815C34.8791 22.4148 35.5473 23.8 36.0818 25.1852C36.4827 26.1926 37.1509 27.7037 37.9527 29.0889C38.22 29.5926 38.6209 30.3481 39.1555 30.9778C39.5564 31.6074 40.0909 32.237 40.8927 32.8667C41.2937 33.1185 41.6946 33.3704 42.2291 33.4963C42.7637 33.6222 43.2982 33.7481 43.8327 33.6222C44.5009 33.4963 45.0355 33.2444 45.3027 33.1185C45.7037 32.8667 46.1046 32.6148 46.3718 32.237C47.04 31.6074 47.4409 30.8518 47.8418 30.2222C48.2427 29.5926 48.51 28.963 48.9109 28.2074C49.4455 26.9481 49.98 25.6889 50.3809 24.1778C51.3164 21.4074 51.8509 18.763 52.5191 16.3704C53.0537 14.1037 53.4546 11.7111 53.9891 8.68888L54.1227 8.05925C54.2564 7.05184 54.5237 6.04443 54.6573 4.9111L55.1918 1.76295V1.38517C55.0582 0.629619 54.5237 0.125916 53.7218 0.125916V0.125916Z" fill="#272A51"/>
<path d="M22.9855 6.42221C22.5845 7.05184 22.3173 7.68147 22.05 8.43702C21.7827 9.06665 21.5155 9.82221 21.2482 10.4518L20.58 12.4667C20.1791 13.7259 19.7782 14.8592 19.3773 15.8667C18.9764 17 18.4418 18.0074 17.9073 18.8889C17.5064 19.5185 16.8382 20.5259 16.17 21.1555C15.5018 21.6592 14.9673 21.9111 14.1655 21.9111C13.4973 21.9111 12.6955 21.5333 11.8936 20.9037C11.2255 20.4 10.5573 19.7704 9.88909 18.8889C9.35454 18.1333 8.68636 17.2518 8.15182 16.3704C7.21636 14.7333 6.14727 12.9704 5.21182 10.9555C3.20727 7.42962 2.00455 4.28147 1.06909 1.5111C0.935455 1.38517 0.801818 1.25925 0.668182 1.25925H0.534545C0.400909 1.25925 0.267273 1.25925 0.133636 1.38517C0 1.38517 0 1.5111 0 1.63702C0 1.76295 0 1.88888 0.133636 1.88888C0.935455 4.65925 2.00455 8.3111 3.47455 12.2148C4.14273 13.8518 4.94455 15.9926 6.14727 18.1333C6.68182 19.2667 7.35 20.2741 7.88455 21.1555C8.68636 22.2889 9.35454 23.1704 10.29 23.9259C10.8245 24.4296 11.3591 24.8074 11.8936 25.0592C12.5618 25.437 13.23 25.6889 13.7645 25.6889C14.4327 25.8148 15.2345 25.6889 15.9027 25.5629C16.5709 25.3111 17.2391 25.0592 17.9073 24.5555C19.2436 23.5481 20.0455 22.4148 20.7136 21.4074C21.3818 20.4 22.05 19.2667 22.7182 17.7555C23.2527 16.6222 23.7873 15.363 24.1882 13.9778L24.8564 12.2148C25.1236 11.5852 25.3909 11.0815 25.5245 10.5778C26.7273 7.68147 28.1973 7.55554 29.5336 9.57036C26.9945 5.54073 22.9855 6.42221 22.9855 6.42221V6.42221Z" fill="url(#paint0_linear)"/>
</g>
</mask>
<g mask="url(#mask0)">
<path d="M-29.3999 -21.4074H175.064V71.7778H-29.3999V-21.4074Z" fill="#AEB3C5"/>
</g>
<defs>
<linearGradient id="paint0_linear" x1="0" y1="13.6239" x2="29.416" y2="13.6239" gradientUnits="userSpaceOnUse">
<stop stop-color="#28E2FF"/>
<stop offset="1" stop-color="#2E3192"/>
</linearGradient>
<clipPath id="clip0">
<rect width="147" height="34" fill="white"/>
</clipPath>
</defs>
</svg>
