<svg width="110" height="27" viewBox="0 0 110 27" fill="none" xmlns="http://www.w3.org/2000/svg">
<g filter="url(#filter0_d)">
<path d="M49.7 11.1C53.7 11.1 56.5 14 56.5 18C56.5 18.3 56.5 18.8 56.4 19C56.4 19.4 56.1 19.6 55.7 19.6H44.9C45 22.1 47.3 24.5 50 24.5C51.6 24.5 52.9 23.9 53.7 23.4C54.2 23.1 54.5 22.9 54.8 23.3L55.4 24.2C55.7 24.5 55.8 24.8 55.3 25.2C54.4 25.9 52.4 26.9 49.8 26.9C45.2 26.9 42.4 23.3 42.4 19C42.3 14.8 45.1 11.1 49.7 11.1V11.1ZM53.9 17.5C53.8 15.3 52 13.4 49.7 13.4C47.2 13.4 45.2 15.2 44.9 17.5H53.9ZM60.5 0.899976C60.5 0.499976 60.8 0.199976 61.2 0.199976H62.4C62.8 0.199976 63.1 0.499976 63.1 0.899976V12.1C63.1 12.1 64.7 11.1 67.1 11.1C71.6 11.1 74.3 14.6 74.3 19C74.3 23.3 71.3 27 67.4 27C64.6 27 62.8 25 62.8 25L62.6 26C62.5 26.3 62.3 26.6 62 26.6H61.2C60.8 26.6 60.5 26.3 60.5 25.9V0.899976ZM67.3 24.6C70.1 24.6 71.8 22 71.8 19.1C71.8 16.1 70.1 13.7 66.9 13.7C64.8 13.7 63.2 14.6 63.2 14.6V22.1C63.2 22.1 64.6 24.6 67.3 24.6V24.6ZM78 6.39998C78 5.39998 78.8 4.59998 79.8 4.59998C80.8 4.59998 81.6 5.39998 81.6 6.39998C81.6 7.39998 80.8 8.19998 79.8 8.19998C78.8 8.09998 78 7.39998 78 6.39998V6.39998ZM78.6 12.2C78.6 11.8 78.9 11.5 79.3 11.5H80.5C80.9 11.5 81.2 11.8 81.2 12.2V25.9C81.2 26.3 80.9 26.6 80.5 26.6H79.3C78.9 26.6 78.6 26.3 78.6 25.9V12.2ZM86.4 12.2C86.4 11.8 86.7 11.5 87.1 11.5H87.8C88.1 11.5 88.3 11.6 88.4 12L88.7 13.2C88.7 13.2 90.5 11.2 93.6 11.2C95.8 11.2 97.4 12.1 98.4 13.7C98.6 13.6 101 11.2 104 11.2C108.4 11.2 109.8 14.1 109.8 18V26C109.8 26.4 109.5 26.7 109.1 26.7H107.9C107.5 26.7 107.2 26.4 107.2 26V18C107.2 15.2 106 13.7 103.8 13.7C101.3 13.7 99.7 15.3 99.2 15.8C99.3 16.4 99.4 17.2 99.4 17.9V25.9C99.4 26.3 99.1 26.6 98.7 26.6H97.5C97.1 26.6 96.8 26.3 96.8 25.9V17.9C96.8 15 95.5 13.6 93.2 13.6C90.5 13.6 88.9 15.7 88.9 15.7V25.8C88.9 26.2 88.6 26.5 88.2 26.5H87C86.6 26.5 86.3 26.2 86.3 25.8L86.4 12.2V12.2ZM40.2 0.0999756C39.8 0.0999756 39.4 0.399976 39.3 0.799976V0.999976L38.8 3.39998C38.7 4.19998 38.5 4.99998 38.3 5.79998L38.2 6.19998C37.8 8.09998 37.3 10.1 36.8 12C36.3 14.1 35.7 16 35.1 17.8C34.8 18.8 34.4 19.8 34.1 20.5L33.5 21.7C33.3 22.1 32.5 23.6 31.4 21.9C31.2 21.6 31 21.2 30.7 20.8C29.8 19.1 29 17 28.4 15.1L27.9 13.7C27.4 12.3 26.9 10.8 26.3 9.39997C26.2 9.29997 26.2 9.09998 26.1 8.99998C25.7 8.09998 25.3 6.99998 24.7 5.89998C24.4 5.29998 24.1 4.79998 23.8 4.39998C23.5 3.89998 23.1 3.39998 22.4 2.89998C22.1 2.69998 21.7 2.49998 21.4 2.39998C21 2.29998 20.6 2.29998 20.2 2.39998C19.8 2.49998 19.5 2.59998 19.1 2.89998C18.8 3.09998 18.5 3.39998 18.3 3.59998C17.8 4.19998 17.5 4.69998 17.2 5.19998C17.2 5.19998 20.2 4.79998 22 7.79998C22 7.79998 22 7.89998 22.1 7.89998C22.1 7.99998 22.2 8.09998 22.3 8.19998C22.7 8.89998 23.1 9.79997 23.5 10.9C24 12.2 24.5 13.6 25.1 15.1C25.3 15.7 25.5 16.3 25.8 16.9C26.1 17.8 26.6 18.9 27 20C27.3 20.8 27.8 22 28.4 23.1C28.6 23.5 28.9 24.1 29.3 24.6C29.6 25.1 30 25.6 30.6 26.1C30.9 26.3 31.2 26.5 31.6 26.6C32 26.7 32.4 26.8 32.8 26.7C33.3 26.6 33.7 26.4 33.9 26.3C34.2 26.1 34.5 25.9 34.7 25.6C35.2 25.1 35.5 24.5 35.8 24C36.1 23.5 36.3 23 36.6 22.4C37 21.4 37.4 20.4 37.7 19.2C38.4 17 38.8 14.9 39.3 13C39.7 11.2 40 9.29998 40.4 6.89998L40.5 6.39998C40.6 5.59998 40.8 4.79998 40.9 3.89998L41.3 1.39998V1.09998C41.2 0.499976 40.8 0.0999756 40.2 0.0999756V0.0999756Z" fill="#272A51"/>
<path d="M17.2 5.1C16.9 5.6 16.7 6.1 16.5 6.7C16.3 7.2 16.1 7.8 15.9 8.3L15.4 9.9C15.1 10.9 14.8 11.8 14.5 12.6C14.2 13.5 13.8 14.3 13.4 15C13.1 15.5 12.6 16.3 12.1 16.8C11.6 17.2 11.2 17.4 10.6 17.4C10.1 17.4 9.5 17.1 8.9 16.6C8.4 16.2 7.9 15.7 7.4 15C7 14.4 6.5 13.7 6.1 13C5.4 11.7 4.6 10.3 3.9 8.7C2.4 5.9 1.5 3.4 0.8 1.2C0.7 1.1 0.6 1 0.5 1H0.4C0.3 1 0.2 1 0.1 1.1C0 1.1 0 1.2 0 1.3C0 1.4 0 1.5 0.1 1.5C0.7 3.7 1.5 6.6 2.6 9.7C3.1 11 3.7 12.7 4.6 14.4C5 15.3 5.5 16.1 5.9 16.8C6.5 17.7 7 18.4 7.7 19C8.1 19.4 8.5 19.7 8.9 19.9C9.4 20.2 9.9 20.4 10.3 20.4C10.8 20.5 11.4 20.4 11.9 20.3C12.4 20.1 12.9 19.9 13.4 19.5C14.4 18.7 15 17.8 15.5 17C16 16.2 16.5 15.3 17 14.1C17.4 13.2 17.8 12.2 18.1 11.1L18.6 9.7C18.8 9.2 19 8.8 19.1 8.4C20 6.1 21.1 6 22.1 7.6C20.2 4.4 17.2 5.1 17.2 5.1V5.1Z" fill="url(#paint0_linear)"/>
</g>
<defs>
<filter id="filter0_d" x="-4" y="0.0999756" width="117.8" height="34.9" filterUnits="userSpaceOnUse" color-interpolation-filters="sRGB">
<feFlood flood-opacity="0" result="BackgroundImageFix"/>
<feColorMatrix in="SourceAlpha" type="matrix" values="0 0 0 0 0 0 0 0 0 0 0 0 0 0 0 0 0 0 127 0"/>
<feOffset dy="4"/>
<feGaussianBlur stdDeviation="2"/>
<feColorMatrix type="matrix" values="0 0 0 0 0 0 0 0 0 0 0 0 0 0 0 0 0 0 0.25 0"/>
<feBlend mode="normal" in2="BackgroundImageFix" result="effect1_dropShadow"/>
<feBlend mode="normal" in="SourceGraphic" in2="effect1_dropShadow" result="shape"/>
</filter>
<linearGradient id="paint0_linear" x1="0" y1="10.819" x2="22.012" y2="10.819" gradientUnits="userSpaceOnUse">
<stop stop-color="#28E2FF"/>
<stop offset="1" stop-color="#2E3192"/>
</linearGradient>
</defs>
</svg>
